<svg xmlns="http://www.w3.org/2000/svg" viewBox="0 0 512 512" width="100%" height="100%">
  <rect width="512" height="512" rx="100" fill="#0284C7"/>
  <path fill="#FFFFFF" d="M120 180h272c11 0 20 9 20 20v112c0 11-9 20-20 20H120c-11 0-20-9-20-20V200c0-11 9-20 20-20z"/>
  <circle cx="150" cy="220" r="14" fill="#38BDF8"/>
  <circle cx="190" cy="220" r="14" fill="#38BDF8"/>
  <circle cx="230" cy="220" r="14" fill="#38BDF8"/>
  <path fill="#0284C7" d="M140 280h232v24H140z"/>
  <path fill="#38BDF8" d="M256 120v40m0 192v40M120 256H80m352 0h-40" stroke="#FFFFFF" stroke-width="24" stroke-linecap="round"/>
</svg>
